<?xml version="1.0" encoding="utf-8"?>
<!-- Generator: Adobe Illustrator 16.0.0, SVG Export Plug-In . SVG Version: 6.00 Build 0)  -->
<!DOCTYPE svg PUBLIC "-//W3C//DTD SVG 1.1//EN" "http://www.w3.org/Graphics/SVG/1.1/DTD/svg11.dtd">
<svg version="1.1" id="Layer_1" xmlns="http://www.w3.org/2000/svg" xmlns:xlink="http://www.w3.org/1999/xlink" x="0px" y="0px"
	 width="308.75px" height="323.93px" viewBox="0 0 308.75 323.93" enable-background="new 0 0 308.75 323.93" xml:space="preserve">
<path fill="none" stroke="#9B9B9B" stroke-width="3" stroke-miterlimit="10" stroke-dasharray="12" d="M70.897,55.261
	c23.188-14.045,75.388,29.713,116.589,97.737c41.202,68.024,55.805,134.555,32.616,148.6"/>
<circle fill="none" stroke="#000000" stroke-width="3" stroke-miterlimit="10" cx="145.5" cy="178.43" r="144"/>
<path fill="none" stroke="#000000" stroke-width="3" stroke-miterlimit="10" d="M289.5,178.43c0,27.11-64.471,49.088-144,49.088
	c-79.529,0-144-21.978-144-49.088"/>
<path fill="none" stroke="#9B9B9B" stroke-width="3" stroke-miterlimit="10" stroke-dasharray="12" d="M1.5,178.43
	c0-27.11,64.471-49.088,144-49.088c79.529,0,144,21.978,144,49.088"/>
<path fill="none" stroke="#000000" stroke-width="3" stroke-miterlimit="10" d="M220.103,301.598
	c-23.188,14.045-75.387-29.713-116.589-97.737C62.312,135.837,47.708,69.307,70.897,55.261"/>
<circle cx="269.166" cy="103.93" r="5"/>
<circle cx="145.166" cy="34.93" r="5"/>
<g>
	<rect x="138.25" y="3.43" fill="none" width="31.5" height="23"/>
	<path d="M141.138,9.535l2.564,7.342c0.432,1.188,0.783,2.268,1.053,3.348h0.081c0.297-1.08,0.675-2.16,1.106-3.348l2.538-7.342
		h2.483L145.835,22.6h-2.268l-4.966-13.064H141.138z"/>
</g>
<g>
	<rect x="277.25" y="91.93" fill="none" width="31.5" height="23"/>
	<path d="M280.165,98.035l1.728,6.641c0.378,1.457,0.729,2.807,0.972,4.156h0.081c0.297-1.322,0.729-2.727,1.16-4.13l2.133-6.667
		h1.998l2.024,6.532c0.485,1.565,0.864,2.942,1.161,4.265h0.08c0.217-1.322,0.566-2.699,0.999-4.237l1.862-6.56h2.349l-4.211,13.064
		h-2.159l-1.998-6.235c-0.459-1.458-0.836-2.753-1.16-4.292h-0.055c-0.323,1.565-0.729,2.915-1.188,4.319l-2.105,6.208h-2.159
		l-3.94-13.064H280.165z"/>
</g>
<g>
</g>
<g>
</g>
<g>
</g>
<g>
</g>
<g>
</g>
<g>
</g>
<g>
</g>
<g>
</g>
<g>
</g>
<g>
</g>
<g>
</g>
<g>
</g>
<g>
</g>
<g>
</g>
<g>
</g>
<g>
</g>
</svg>
