<?xml version="1.0" encoding="utf-8"?>
<!-- Generator: Adobe Illustrator 16.0.0, SVG Export Plug-In . SVG Version: 6.00 Build 0)  -->
<!DOCTYPE svg PUBLIC "-//W3C//DTD SVG 1.1//EN" "http://www.w3.org/Graphics/SVG/1.1/DTD/svg11.dtd">
<svg version="1.1" id="Layer_1" xmlns="http://www.w3.org/2000/svg" xmlns:xlink="http://www.w3.org/1999/xlink" x="0px" y="0px"
	 width="296.304px" height="300.002px" viewBox="0 0 296.304 300.002" enable-background="new 0 0 296.304 300.002"
	 xml:space="preserve">
<polyline fill="none" stroke="#9B9B9B" stroke-width="2" stroke-miterlimit="10" stroke-dasharray="12" points="73.207,2.915 
	72.874,224.415 293.874,223.748 "/>
<line fill="none" stroke="#9B9B9B" stroke-width="2" stroke-miterlimit="10" stroke-dasharray="12" x1="3.707" y1="293.915" x2="73.309" y2="224.313"/>
<circle fill="none" stroke="#9B9B9B" stroke-width="3" stroke-miterlimit="10" cx="148.207" cy="148.915" r="144"/>
<rect x="1.207" y="75.415" fill="none" stroke="#000000" stroke-width="2" stroke-miterlimit="10" width="220" height="220"/>
<line fill="none" stroke="#000000" stroke-width="2" stroke-miterlimit="10" x1="0.707" y1="74.915" x2="72.309" y2="3.313"/>
<line fill="none" stroke="#000000" stroke-width="2" stroke-miterlimit="10" x1="221.707" y1="74.915" x2="291.973" y2="4.649"/>
<line fill="none" stroke="#000000" stroke-width="2" stroke-miterlimit="10" x1="223.707" y1="293.915" x2="293.973" y2="223.649"/>
<polyline fill="none" stroke="#000000" stroke-width="2" stroke-miterlimit="10" points="291.207,223.415 291.207,3.498 
	69.916,3.165 "/>
<line fill="none" stroke="#000000" stroke-width="2" stroke-miterlimit="10" x1="111.207" y1="73.415" x2="111.207" y2="296.415"/>
<line fill="none" stroke="#000000" stroke-width="2" stroke-miterlimit="10" x1="164.207" y1="74.415" x2="164.207" y2="296.415"/>
<line fill="none" stroke="#000000" stroke-width="2" stroke-miterlimit="10" x1="51.207" y1="73.415" x2="51.207" y2="296.415"/>
<line fill="none" stroke="#000000" stroke-width="2" stroke-miterlimit="10" x1="220.207" y1="189.415" x2="0.207" y2="189.415"/>
<line fill="none" stroke="#000000" stroke-width="2" stroke-miterlimit="10" x1="223.207" y1="242.415" x2="0.207" y2="242.415"/>
<line fill="none" stroke="#000000" stroke-width="2" stroke-miterlimit="10" x1="220.207" y1="129.415" x2="1.207" y2="129.415"/>
<line fill="none" stroke="#000000" stroke-width="2" stroke-miterlimit="10" x1="260.207" y1="34.415" x2="260.207" y2="258.415"/>
<line fill="none" stroke="#000000" stroke-width="2" stroke-miterlimit="10" x1="277.207" y1="18.415" x2="277.207" y2="241.415"/>
<line fill="none" stroke="#000000" stroke-width="2" stroke-miterlimit="10" x1="240.207" y1="56.415" x2="240.207" y2="278.415"/>
<line fill="none" stroke="#000000" stroke-width="2" stroke-miterlimit="10" x1="292.096" y1="119.804" x2="222.493" y2="189.406"/>
<line fill="none" stroke="#000000" stroke-width="2" stroke-miterlimit="10" x1="292.422" y1="171.63" x2="221.819" y2="242.231"/>
<line fill="none" stroke="#000000" stroke-width="2" stroke-miterlimit="10" x1="291.991" y1="59.699" x2="223.097" y2="128.594"/>
<line fill="none" stroke="#000000" stroke-width="2" stroke-miterlimit="10" x1="182.991" y1="3.699" x2="112.097" y2="74.595"/>
<line fill="none" stroke="#000000" stroke-width="2" stroke-miterlimit="10" x1="236.991" y1="3.699" x2="165.097" y2="75.595"/>
<line fill="none" stroke="#000000" stroke-width="2" stroke-miterlimit="10" x1="121.991" y1="3.699" x2="51.097" y2="74.595"/>
<line fill="none" stroke="#000000" stroke-width="2" stroke-miterlimit="10" x1="278.207" y1="19.415" x2="56.207" y2="19.415"/>
<line fill="none" stroke="#000000" stroke-width="2" stroke-miterlimit="10" x1="259.207" y1="37.415" x2="38.207" y2="37.415"/>
<line fill="none" stroke="#000000" stroke-width="2" stroke-miterlimit="10" x1="238.207" y1="58.415" x2="17.207" y2="58.415"/>
<circle cx="52.303" cy="242.001" r="5"/>
<circle cx="51.303" cy="189.001" r="5"/>
<circle cx="51.303" cy="129.001" r="5"/>
<circle cx="112.303" cy="295.001" r="5"/>
<circle cx="111.303" cy="242.001" r="5"/>
<circle cx="111.303" cy="188.001" r="5"/>
<circle cx="112.303" cy="129.001" r="5"/>
<circle cx="113.303" cy="76.001" r="5"/>
<circle cx="129.303" cy="58.001" r="5"/>
<circle cx="149.303" cy="37.001" r="5"/>
<circle cx="168.303" cy="19.001" r="5"/>
<circle cx="68.303" cy="58.001" r="5"/>
<circle cx="88.303" cy="37.001" r="5"/>
<circle cx="107.303" cy="19.001" r="5"/>
<circle cx="182.303" cy="58.001" r="5"/>
<circle cx="202.303" cy="37.001" r="5"/>
<circle cx="221.303" cy="19.001" r="5"/>
<circle cx="222.303" cy="75.001" r="5"/>
<circle cx="291.303" cy="5.001" r="5"/>
<circle cx="261.303" cy="36.001" r="5"/>
<circle cx="222.303" cy="295.001" r="5"/>
<circle cx="221.303" cy="188.001" r="5"/>
<circle cx="261.303" cy="258.001" r="5"/>
<circle cx="260.303" cy="205.001" r="5"/>
<circle cx="260.303" cy="151.001" r="5"/>
<circle cx="261.303" cy="92.001" r="5"/>
<circle cx="290.303" cy="227.001" r="5"/>
<circle cx="291.303" cy="121.001" r="5"/>
<circle cx="240.303" cy="224.001" r="5"/>
<circle cx="240.303" cy="170.001" r="5"/>
<circle cx="241.303" cy="111.001" r="5"/>
<g>
</g>
<g>
</g>
<g>
</g>
<g>
</g>
<g>
</g>
<g>
</g>
<g>
</g>
<g>
</g>
<g>
</g>
<g>
</g>
<g>
</g>
<g>
</g>
<g>
</g>
<g>
</g>
<g>
</g>
</svg>
