<?xml version="1.0" encoding="utf-8"?>
<!-- Generator: Adobe Illustrator 16.0.0, SVG Export Plug-In . SVG Version: 6.00 Build 0)  -->
<!DOCTYPE svg PUBLIC "-//W3C//DTD SVG 1.1//EN" "http://www.w3.org/Graphics/SVG/1.1/DTD/svg11.dtd">
<svg version="1.1" id="Layer_1" xmlns="http://www.w3.org/2000/svg" xmlns:xlink="http://www.w3.org/1999/xlink" x="0px" y="0px"
	 width="235.003px" height="227.002px" viewBox="0 0 235.003 227.002" enable-background="new 0 0 235.003 227.002"
	 xml:space="preserve">
<g>
	<path d="M165.906,9.351l57.325,54.614l-57.325,0.847V9.415 M162.906,2.35v65.507l67.709-1L162.906,2.35L162.906,2.35z"/>
</g>
<polygon fill="none" stroke="#000000" stroke-width="3" stroke-miterlimit="10" points="97.31,160.107 50.443,113.241 96.765,66.92 
	"/>
<line fill="none" stroke="#000000" stroke-width="3" stroke-miterlimit="10" x1="50.906" y1="112.915" x2="229.906" y2="112.915"/>
<line fill="none" stroke="#000000" stroke-width="3" stroke-miterlimit="10" x1="229.406" y1="65.415" x2="229.406" y2="160.415"/>
<line fill="none" stroke="#000000" stroke-width="3" stroke-miterlimit="10" x1="96.906" y1="159.915" x2="229.906" y2="159.915"/>
<polygon fill="none" stroke="#000000" stroke-width="3" stroke-miterlimit="10" points="4.656,160.107 51.522,113.241 5.201,66.92 
	"/>
<line fill="none" stroke="#000000" stroke-width="3" stroke-miterlimit="10" x1="97.906" y1="65.915" x2="230.906" y2="65.915"/>
<g>
	<path d="M223.635,161.415l-57.729,55.756v-55.756h58 M231.05,158.415h-68.144v65.832L231.05,158.415L231.05,158.415z"/>
</g>
<line fill="none" stroke="#000000" stroke-width="3" stroke-miterlimit="10" x1="163.698" y1="3.543" x2="5.201" y2="66.92"/>
<line fill="none" stroke="#000000" stroke-width="3" stroke-miterlimit="10" x1="4.656" y1="160.107" x2="164.056" y2="222.817"/>
<circle cx="6.002" cy="67.001" r="5"/>
<circle cx="5.002" cy="160.001" r="5"/>
<circle cx="52.002" cy="114.001" r="5"/>
<circle cx="97.002" cy="67.001" r="5"/>
<circle cx="98.002" cy="160.001" r="5"/>
<circle cx="164.002" cy="222.001" r="5"/>
<circle cx="229.002" cy="160.001" r="5"/>
<circle cx="164.002" cy="161.001" r="5"/>
<circle cx="230.002" cy="112.001" r="5"/>
<circle cx="230.002" cy="65.001" r="5"/>
<circle cx="164.002" cy="5.001" r="5"/>
<circle cx="165.002" cy="66.001" r="5"/>
<g>
</g>
<g>
</g>
<g>
</g>
<g>
</g>
<g>
</g>
<g>
</g>
<g>
</g>
<g>
</g>
<g>
</g>
<g>
</g>
<g>
</g>
<g>
</g>
<g>
</g>
<g>
</g>
<g>
</g>
</svg>
