<?xml version="1.0" encoding="utf-8"?>
<!-- Generator: Adobe Illustrator 16.0.0, SVG Export Plug-In . SVG Version: 6.00 Build 0)  -->
<!DOCTYPE svg PUBLIC "-//W3C//DTD SVG 1.1//EN" "http://www.w3.org/Graphics/SVG/1.1/DTD/svg11.dtd">
<svg version="1.1" id="Layer_1" xmlns="http://www.w3.org/2000/svg" xmlns:xlink="http://www.w3.org/1999/xlink" x="0px" y="0px"
	 width="227.85px" height="219.327px" viewBox="0 0 227.85 219.327" enable-background="new 0 0 227.85 219.327"
	 xml:space="preserve">
<circle cx="117.419" cy="50" r="5"/>
<circle cx="117.419" cy="116" r="5"/>
<circle cx="67.419" cy="5" r="5"/>
<circle cx="167.419" cy="5" r="5"/>
<line fill="none" stroke="#000000" stroke-width="3" stroke-miterlimit="10" x1="67.753" y1="4.5" x2="167.753" y2="4.5"/>
<line fill="none" stroke="#000000" stroke-width="3" stroke-miterlimit="10" x1="167.419" y1="5" x2="222.849" y2="123.586"/>
<line fill="none" stroke="#000000" stroke-width="3" stroke-miterlimit="10" x1="67.419" y1="5" x2="4.503" y2="123"/>
<line fill="none" stroke="#000000" stroke-width="3" stroke-miterlimit="10" x1="66.753" y1="151" x2="117.419" y2="116"/>
<line fill="none" stroke="#000000" stroke-width="3" stroke-miterlimit="10" x1="117.419" y1="116" x2="161.003" y2="151"/>
<line fill="none" stroke="#000000" stroke-width="3" stroke-miterlimit="10" x1="117.253" y1="50" x2="117.253" y2="116"/>
<line fill="none" stroke="#000000" stroke-width="3" stroke-miterlimit="10" x1="67.419" y1="5" x2="117.419" y2="50"/>
<line fill="none" stroke="#000000" stroke-width="3" stroke-miterlimit="10" x1="117.419" y1="50" x2="167.753" y2="4.5"/>
<line fill="none" stroke="#000000" stroke-width="3" stroke-miterlimit="10" x1="46.753" y1="214.5" x2="180.753" y2="214.5"/>
<circle cx="161.002" cy="150.044" r="5"/>
<circle cx="222.849" cy="123.586" r="5"/>
<circle cx="180.823" cy="214.326" r="5"/>
<line fill="none" stroke="#000000" stroke-width="3" stroke-miterlimit="10" x1="223.162" y1="124.099" x2="181.136" y2="214.839"/>
<line fill="none" stroke="#000000" stroke-width="3" stroke-miterlimit="10" x1="222.849" y1="123.586" x2="161.002" y2="150.044"/>
<line fill="none" stroke="#000000" stroke-width="3" stroke-miterlimit="10" x1="161.002" y1="150.044" x2="181.136" y2="214.839"/>
<circle cx="66.848" cy="150.044" r="5"/>
<circle cx="5.001" cy="123.586" r="5"/>
<circle cx="47.027" cy="214.326" r="5"/>
<line fill="none" stroke="#000000" stroke-width="3" stroke-miterlimit="10" x1="4.688" y1="124.099" x2="46.714" y2="214.839"/>
<line fill="none" stroke="#000000" stroke-width="3" stroke-miterlimit="10" x1="5.001" y1="123.586" x2="66.848" y2="150.044"/>
<line fill="none" stroke="#000000" stroke-width="3" stroke-miterlimit="10" x1="66.848" y1="150.044" x2="46.714" y2="214.839"/>
<g>
</g>
<g>
</g>
<g>
</g>
<g>
</g>
<g>
</g>
<g>
</g>
<g>
</g>
<g>
</g>
<g>
</g>
<g>
</g>
<g>
</g>
<g>
</g>
<g>
</g>
<g>
</g>
<g>
</g>
</svg>
