<?xml version="1.0" encoding="utf-8"?>
<!-- Generator: Adobe Illustrator 16.0.0, SVG Export Plug-In . SVG Version: 6.00 Build 0)  -->
<!DOCTYPE svg PUBLIC "-//W3C//DTD SVG 1.1//EN" "http://www.w3.org/Graphics/SVG/1.1/DTD/svg11.dtd">
<svg version="1.1" id="Layer_1" xmlns="http://www.w3.org/2000/svg" xmlns:xlink="http://www.w3.org/1999/xlink" x="0px" y="0px"
	 width="291.5px" height="271.85px" viewBox="0 0 291.5 271.85" enable-background="new 0 0 291.5 271.85" xml:space="preserve">
<circle cx="144.916" cy="77.93" r="5"/>
<circle cx="144.916" cy="143.93" r="5"/>
<circle cx="94.916" cy="32.93" r="5"/>
<circle cx="194.916" cy="32.93" r="5"/>
<line fill="none" stroke="#000000" stroke-width="3" stroke-miterlimit="10" x1="95.25" y1="32.43" x2="195.25" y2="32.43"/>
<line fill="none" stroke="#000000" stroke-width="3" stroke-miterlimit="10" x1="194.916" y1="32.93" x2="250.346" y2="151.516"/>
<line fill="none" stroke="#000000" stroke-width="3" stroke-miterlimit="10" x1="94.916" y1="32.93" x2="32" y2="150.93"/>
<line fill="none" stroke="#000000" stroke-width="3" stroke-miterlimit="10" x1="94.25" y1="178.93" x2="144.916" y2="143.93"/>
<line fill="none" stroke="#000000" stroke-width="3" stroke-miterlimit="10" x1="144.916" y1="143.93" x2="188.5" y2="178.93"/>
<line fill="none" stroke="#000000" stroke-width="3" stroke-miterlimit="10" x1="144.75" y1="77.93" x2="144.75" y2="143.93"/>
<line fill="none" stroke="#000000" stroke-width="3" stroke-miterlimit="10" x1="94.916" y1="32.93" x2="144.916" y2="77.93"/>
<line fill="none" stroke="#000000" stroke-width="3" stroke-miterlimit="10" x1="144.916" y1="77.93" x2="195.25" y2="32.43"/>
<line fill="none" stroke="#000000" stroke-width="3" stroke-miterlimit="10" x1="74.25" y1="242.43" x2="208.25" y2="242.43"/>
<circle cx="188.499" cy="177.974" r="5"/>
<circle cx="250.346" cy="151.516" r="5"/>
<circle cx="208.32" cy="242.256" r="5"/>
<line fill="none" stroke="#000000" stroke-width="3" stroke-miterlimit="10" x1="250.659" y1="152.028" x2="208.633" y2="242.769"/>
<line fill="none" stroke="#000000" stroke-width="3" stroke-miterlimit="10" x1="250.346" y1="151.516" x2="188.499" y2="177.974"/>
<line fill="none" stroke="#000000" stroke-width="3" stroke-miterlimit="10" x1="188.499" y1="177.974" x2="208.633" y2="242.769"/>
<circle cx="94.345" cy="177.974" r="5"/>
<circle cx="32.498" cy="151.516" r="5"/>
<circle cx="74.524" cy="242.256" r="5"/>
<line fill="none" stroke="#000000" stroke-width="3" stroke-miterlimit="10" x1="32.185" y1="152.028" x2="74.211" y2="242.769"/>
<line fill="none" stroke="#000000" stroke-width="3" stroke-miterlimit="10" x1="32.498" y1="151.516" x2="94.345" y2="177.974"/>
<line fill="none" stroke="#000000" stroke-width="3" stroke-miterlimit="10" x1="94.345" y1="177.974" x2="74.211" y2="242.769"/>
<g>
	<rect x="64" y="3.43" fill="none" width="31.5" height="23"/>
	<path d="M65.971,13.8c0-1.674-0.054-3.023-0.108-4.265h2.133l0.108,2.24h0.054c0.972-1.593,2.51-2.537,4.643-2.537
		c3.158,0,5.533,2.672,5.533,6.64c0,4.697-2.861,7.019-5.938,7.019c-1.728,0-3.239-0.756-4.021-2.052h-0.054v7.1h-2.348V13.8z
		 M68.319,17.282c0,0.351,0.054,0.675,0.108,0.972c0.432,1.646,1.863,2.78,3.563,2.78c2.51,0,3.968-2.052,3.968-5.048
		c0-2.618-1.377-4.858-3.887-4.858c-1.62,0-3.131,1.16-3.59,2.942c-0.081,0.297-0.162,0.647-0.162,0.972V17.282z"/>
	<path d="M80.119,16.742c0.621-0.405,1.781-0.837,3.104-0.837c2.321,0,3.293,1.242,3.293,2.537c0,1.08-0.783,1.998-2.079,2.43v0.054
		c1.484,0.216,2.51,1.242,2.51,2.618c0,1.674-1.512,3.158-4.265,3.158c-1.296,0-2.483-0.351-3.077-0.756l0.486-1.35
		c0.432,0.297,1.484,0.702,2.51,0.702c1.646,0,2.375-0.972,2.348-1.809c0-1.35-1.431-1.89-2.861-1.89H81.36v-1.241h0.756
		c0.999,0,2.429-0.459,2.456-1.728c0-0.648-0.486-1.323-1.7-1.323c-0.972,0-1.863,0.405-2.294,0.702L80.119,16.742z"/>
</g>
<g>
	<rect y="130.43" fill="none" width="31.5" height="23"/>
	<path d="M1.971,140.8c0-1.674-0.054-3.023-0.108-4.265h2.133l0.108,2.24h0.054c0.972-1.593,2.51-2.537,4.643-2.537
		c3.158,0,5.533,2.672,5.533,6.64c0,4.697-2.861,7.019-5.938,7.019c-1.728,0-3.239-0.756-4.021-2.052H4.319v7.1H1.971V140.8z
		 M4.319,144.282c0,0.351,0.054,0.675,0.108,0.972c0.432,1.646,1.863,2.78,3.563,2.78c2.51,0,3.968-2.052,3.968-5.048
		c0-2.618-1.377-4.858-3.887-4.858c-1.62,0-3.131,1.16-3.59,2.942c-0.081,0.297-0.162,0.647-0.162,0.972V144.282z"/>
	<path d="M15.687,152.568l1.701-1.592c2.24-2.024,3.401-3.293,3.401-4.67c0-1.025-0.648-1.89-2.052-1.89
		c-0.945,0-1.754,0.486-2.267,0.837l-0.567-1.215c0.729-0.621,1.943-1.134,3.293-1.134c2.537,0,3.59,1.593,3.59,3.051
		c0,2.024-1.539,3.509-3.59,5.317l-0.837,0.756v0.054h4.616v1.484h-7.288V152.568z"/>
</g>
<g>
	<rect x="54.5" y="245.43" fill="none" width="31.5" height="23"/>
	<path d="M56.471,255.8c0-1.674-0.054-3.023-0.108-4.265h2.133l0.108,2.24h0.054c0.972-1.593,2.51-2.537,4.643-2.537
		c3.158,0,5.533,2.672,5.533,6.64c0,4.697-2.861,7.019-5.938,7.019c-1.728,0-3.239-0.756-4.021-2.052h-0.054v7.1h-2.348V255.8z
		 M58.819,259.282c0,0.351,0.054,0.675,0.108,0.972c0.432,1.646,1.863,2.78,3.563,2.78c2.51,0,3.968-2.052,3.968-5.048
		c0-2.618-1.377-4.858-3.887-4.858c-1.62,0-3.131,1.16-3.59,2.942c-0.081,0.297-0.162,0.647-0.162,0.972V259.282z"/>
	<path d="M72.751,268.567v-8.881h-0.054l-1.944,0.945l-0.297-1.403l2.538-1.188h1.646v10.527H72.751z"/>
</g>
<g>
	<rect x="212.25" y="245.93" fill="none" width="31.5" height="23"/>
	<path d="M221.455,265.1l-0.189-1.646h-0.081c-0.729,1.025-2.132,1.943-3.995,1.943c-2.645,0-3.994-1.862-3.994-3.752
		c0-3.158,2.807-4.886,7.854-4.858v-0.271c0-1.079-0.297-3.022-2.97-3.022c-1.215,0-2.482,0.378-3.4,0.972l-0.54-1.566
		c1.079-0.701,2.646-1.16,4.292-1.16c3.994,0,4.967,2.727,4.967,5.345v4.886c0,1.134,0.054,2.24,0.215,3.131H221.455z
		 M221.104,258.433c-2.592-0.055-5.533,0.404-5.533,2.942c0,1.538,1.025,2.267,2.24,2.267c1.701,0,2.78-1.079,3.158-2.186
		c0.081-0.243,0.135-0.514,0.135-0.756V258.433z"/>
</g>
<g>
	<rect x="260" y="138.68" fill="none" width="31.5" height="23"/>
	<path d="M261.971,149.05c0-1.674-0.055-3.023-0.108-4.265h2.133l0.108,2.24h0.053c0.973-1.593,2.511-2.537,4.644-2.537
		c3.158,0,5.533,2.672,5.533,6.64c0,4.697-2.86,7.019-5.938,7.019c-1.728,0-3.238-0.756-4.021-2.052h-0.055v7.1h-2.348V149.05z
		 M264.318,152.532c0,0.351,0.055,0.675,0.108,0.972c0.433,1.646,1.862,2.78,3.563,2.78c2.51,0,3.968-2.052,3.968-5.048
		c0-2.618-1.377-4.858-3.888-4.858c-1.619,0-3.131,1.16-3.59,2.942c-0.08,0.297-0.162,0.647-0.162,0.972V152.532z"/>
	<path d="M282.597,152.775h-4.184l-0.351,2.294c0.215-0.027,0.485-0.054,0.836-0.054c0.891,0,1.781,0.162,2.484,0.594
		c0.836,0.459,1.511,1.403,1.511,2.727c0,2.078-1.7,3.616-4.21,3.616c-1.161,0-2.268-0.323-2.809-0.647l0.379-1.35
		c0.459,0.27,1.377,0.594,2.402,0.594c1.215,0,2.375-0.783,2.375-2.052s-0.863-2.159-3.051-2.159c-0.62,0-1.133,0.081-1.538,0.108
		l0.702-5.156h5.452V152.775z"/>
</g>
<g>
	<rect x="205.25" y="9.43" fill="none" width="31.5" height="23"/>
	<path d="M207.221,19.8c0-1.674-0.055-3.023-0.108-4.265h2.133l0.108,2.24h0.053c0.973-1.593,2.511-2.537,4.644-2.537
		c3.158,0,5.533,2.672,5.533,6.64c0,4.697-2.86,7.019-5.938,7.019c-1.728,0-3.238-0.756-4.021-2.052h-0.055v7.1h-2.348V19.8z
		 M209.568,23.282c0,0.351,0.055,0.675,0.108,0.972c0.433,1.646,1.862,2.78,3.563,2.78c2.51,0,3.968-2.052,3.968-5.048
		c0-2.618-1.377-4.858-3.888-4.858c-1.619,0-3.131,1.16-3.59,2.942c-0.08,0.297-0.162,0.647-0.162,0.972V23.282z"/>
	<path d="M226.146,32.567v-2.78h-5.102v-1.079l4.777-6.722h2.133v6.479h1.512v1.322h-1.512v2.78H226.146z M226.146,25.279
		c0-0.594,0.054-1.16,0.081-1.7h-0.054c-0.324,0.621-0.594,1.106-0.918,1.593l-2.349,3.239l0.026,0.054h3.213V25.279z"/>
</g>
<g>
	<rect x="99.5" y="178.43" fill="none" width="31.5" height="23"/>
	<path d="M102.388,184.535l2.564,7.342c0.432,1.188,0.783,2.268,1.053,3.348h0.081c0.297-1.08,0.675-2.16,1.106-3.348l2.538-7.342
		h2.483l-5.128,13.064h-2.268l-4.966-13.064H102.388z"/>
</g>
<g>
	<rect x="172" y="179.43" fill="none" width="31.5" height="23"/>
	<path d="M175.077,185.535l1.862,2.808c0.486,0.729,0.891,1.403,1.322,2.132h0.082c0.432-0.782,0.863-1.457,1.295-2.159l1.836-2.78
		h2.564l-4.454,6.316l4.589,6.748h-2.699l-1.916-2.942c-0.514-0.756-0.945-1.484-1.404-2.268h-0.054
		c-0.433,0.783-0.892,1.485-1.377,2.268l-1.89,2.942h-2.618l4.644-6.667l-4.428-6.397H175.077z"/>
</g>
<g>
	<rect x="153" y="122.43" fill="none" width="31.5" height="23"/>
	<path d="M153.486,140.223l5.911-7.692c0.567-0.702,1.106-1.323,1.7-2.024v-0.055h-7.072v-1.916h9.961l-0.027,1.484l-5.83,7.585
		c-0.54,0.729-1.08,1.377-1.674,2.052v0.054h7.639v1.89h-10.607V140.223z"/>
</g>
<g>
	<rect x="152" y="72.93" fill="none" width="31.5" height="23"/>
	<path d="M154.915,79.035l1.728,6.641c0.378,1.457,0.729,2.807,0.972,4.156h0.081c0.297-1.322,0.729-2.727,1.16-4.13l2.133-6.667
		h1.998l2.024,6.532c0.485,1.565,0.864,2.942,1.161,4.265h0.08c0.217-1.322,0.566-2.699,0.999-4.237l1.862-6.56h2.349L167.251,92.1
		h-2.159l-1.998-6.235c-0.459-1.458-0.836-2.753-1.16-4.292h-0.055c-0.323,1.565-0.729,2.915-1.188,4.319l-2.105,6.208h-2.159
		l-3.94-13.064H154.915z"/>
</g>
<g>
</g>
<g>
</g>
<g>
</g>
<g>
</g>
<g>
</g>
<g>
</g>
<g>
</g>
<g>
</g>
<g>
</g>
<g>
</g>
<g>
</g>
<g>
</g>
<g>
</g>
<g>
</g>
<g>
</g>
<g>
</g>
</svg>
